<?xml version="1.0" encoding="UTF-8" standalone="no"?>
<!-- Created with Inkscape (http://www.inkscape.org/) -->

<svg
   xmlns:dc="http://purl.org/dc/elements/1.1/"
   xmlns:cc="http://creativecommons.org/ns#"
   xmlns:rdf="http://www.w3.org/1999/02/22-rdf-syntax-ns#"
   xmlns:svg="http://www.w3.org/2000/svg"
   xmlns="http://www.w3.org/2000/svg"
   xmlns:sodipodi="http://sodipodi.sourceforge.net/DTD/sodipodi-0.dtd"
   xmlns:inkscape="http://www.inkscape.org/namespaces/inkscape"
   width="40"
   height="40"
   viewBox="0 0 10.583333 10.583334"
   version="1.1"
   id="svg8"
   inkscape:version="0.92.4 (5da689c313, 2019-01-14)"
   sodipodi:docname="speedometer.svg"
   inkscape:export-filename="/home/geo/slaw/images/block/speedometer_vl.png"
   inkscape:export-xdpi="240"
   inkscape:export-ydpi="240">
  <defs
     id="defs2" />
  <sodipodi:namedview
     id="base"
     pagecolor="#ffffff"
     bordercolor="#666666"
     borderopacity="1.0"
     inkscape:pageopacity="0.0"
     inkscape:pageshadow="2"
     inkscape:zoom="15.6"
     inkscape:cx="20"
     inkscape:cy="20"
     inkscape:document-units="mm"
     inkscape:current-layer="layer1"
     showgrid="false"
     units="px"
     inkscape:window-width="1440"
     inkscape:window-height="810"
     inkscape:window-x="202"
     inkscape:window-y="179"
     inkscape:window-maximized="0" />
  <metadata
     id="metadata5">
    <rdf:RDF>
      <cc:Work
         rdf:about="">
        <dc:format>image/svg+xml</dc:format>
        <dc:type
           rdf:resource="http://purl.org/dc/dcmitype/StillImage" />
        <dc:title></dc:title>
      </cc:Work>
    </rdf:RDF>
  </metadata>
  <g
     inkscape:label="Layer 1"
     inkscape:groupmode="layer"
     id="layer1"
     transform="translate(0,-286.41665)">
    <g
       id="g1070"
       transform="matrix(0.16536458,0,0,0.16536458,1.0666667e-7,286.41665)">
      <g
         id="Layer_1">
	<g
   id="g945">
		<circle
   id="circle943"
   r="32"
   cy="32"
   cx="32"
   class="st0"
   style="fill:#4f5d73" />

	</g>

	<g
   id="g1001">
		<g
   id="g951">
			<g
   id="g949">
				<path
   id="path947"
   d="m 47.7,40.6 c 0.2,-0.4 0.6,-0.6 1,-0.7 0.4,-0.1 0.9,-0.1 1.4,0.1 l 2.5,1.2 c 0.5,0.2 0.8,0.6 0.9,1.1 0.2,0.5 0.1,1.1 -0.2,1.6 -0.3,0.5 -0.8,0.9 -1.2,1 -0.5,0.1 -1,0 -1.4,-0.3 L 48.4,43 C 48,42.7 47.7,42.3 47.6,41.9 47.5,41.4 47.5,41 47.7,40.6 Z"
   class="st1"
   inkscape:connector-curvature="0"
   style="fill:#e0e0d1" />

			</g>

		</g>

		<g
   id="g957">
			<g
   id="g955">
				<path
   id="path953"
   d="m 16.4,40.8 c 0.5,0.7 0.1,1.8 -0.7,2.4 l -2.3,1.6 c -0.9,0.6 -2,0.3 -2.7,-0.7 -0.6,-1 -0.2,-2.3 0.7,-2.7 l 2.5,-1.2 c 1.1,-0.4 2.1,-0.1 2.5,0.6 z"
   class="st1"
   inkscape:connector-curvature="0"
   style="fill:#e0e0d1" />

			</g>

		</g>

		<g
   id="g963">
			<g
   id="g961">
				<path
   id="path959"
   d="m 14,31.8 c 0,0.9 -0.7,1.6 -1.8,1.7 l -2.8,0.3 c -1,0.1 -2,-0.8 -2,-2 0,-1.2 0.9,-2.1 1.9,-2 l 2.8,0.2 c 1.1,0.2 1.9,0.9 1.9,1.8 z"
   class="st1"
   inkscape:connector-curvature="0"
   style="fill:#e0e0d1" />

			</g>

		</g>

		<g
   id="g969">
			<g
   id="g967">
				<path
   id="path965"
   d="m 16.3,22.7 c -0.2,0.4 -0.6,0.6 -1,0.7 -0.4,0.1 -0.9,0.1 -1.4,-0.1 l -2.5,-1.2 c -0.5,-0.2 -0.8,-0.6 -0.9,-1.1 -0.2,-0.5 -0.1,-1.1 0.2,-1.6 0.3,-0.5 0.8,-0.9 1.2,-1 0.5,-0.1 1,0 1.4,0.3 l 2.3,1.6 c 0.4,0.3 0.7,0.7 0.8,1.1 0.2,0.5 0.2,1 -0.1,1.3 z"
   class="st1"
   inkscape:connector-curvature="0"
   style="fill:#e0e0d1" />

			</g>

		</g>

		<g
   id="g975">
			<g
   id="g973">
				<path
   id="path971"
   d="m 22.9,16.1 c -0.7,0.5 -1.8,0.1 -2.4,-0.7 l -1.6,-2.3 c -0.6,-0.9 -0.3,-2 0.7,-2.7 1,-0.6 2.3,-0.2 2.7,0.7 l 1.2,2.5 c 0.4,1 0.1,2 -0.6,2.5 z"
   class="st1"
   inkscape:connector-curvature="0"
   style="fill:#e0e0d1" />

			</g>

		</g>

		<g
   id="g981">
			<g
   id="g979">
				<path
   id="path977"
   d="m 31.9,13.6 c -0.9,0 -1.6,-0.7 -1.7,-1.8 L 29.9,9 c -0.1,-1 0.8,-2 2,-2 1.2,0 2.1,0.9 2,1.9 l -0.2,2.8 c -0.2,1.1 -0.9,1.9 -1.8,1.9 z"
   class="st1"
   inkscape:connector-curvature="0"
   style="fill:#e0e0d1" />

			</g>

		</g>

		<g
   id="g987">
			<g
   id="g985">
				<path
   id="path983"
   d="m 41,16 c -0.4,-0.2 -0.6,-0.6 -0.7,-1 -0.1,-0.4 -0.1,-0.9 0.1,-1.4 l 1.2,-2.5 c 0.2,-0.5 0.6,-0.8 1.1,-0.9 0.5,-0.2 1.1,-0.1 1.6,0.2 0.5,0.3 0.9,0.8 1,1.2 0.1,0.5 0,1 -0.3,1.4 l -1.6,2.3 c -0.3,0.4 -0.7,0.7 -1.1,0.8 -0.5,0.1 -1,0.1 -1.3,-0.1 z"
   class="st1"
   inkscape:connector-curvature="0"
   style="fill:#e0e0d1" />

			</g>

		</g>

		<g
   id="g993">
			<g
   id="g991">
				<path
   id="path989"
   d="m 47.6,22.5 c -0.5,-0.7 -0.1,-1.8 0.7,-2.4 l 2.3,-1.6 c 0.9,-0.6 2,-0.3 2.7,0.7 0.6,1 0.2,2.3 -0.7,2.7 L 50,23.1 c -0.9,0.5 -2,0.2 -2.4,-0.6 z"
   class="st1"
   inkscape:connector-curvature="0"
   style="fill:#e0e0d1" />

			</g>

		</g>

		<g
   id="g999">
			<g
   id="g997">
				<path
   id="path995"
   d="m 50.1,31.5 c 0,-0.9 0.7,-1.6 1.8,-1.7 l 2.8,-0.3 c 1,-0.1 2,0.8 2,2 0,1.2 -0.9,2.1 -1.9,2 L 52,33.3 c -1.1,-0.1 -1.9,-0.9 -1.9,-1.8 z"
   class="st1"
   inkscape:connector-curvature="0"
   style="fill:#e0e0d1" />

			</g>

		</g>

	</g>

	<g
   id="g1005"
   class="st2"
   style="opacity:0.2">
		<path
   id="path1003"
   d="M 41.6,24.4 C 41.2,24 40.5,23.9 40.1,24.2 l -4.7,2.9 -3.1,1.9 c 0,0 0,0 0,0 -0.1,0 -0.2,0 -0.3,0 -2.8,0 -5,2.2 -5,5 0,0.1 0,0.2 0,0.3 0.2,2.5 2.1,4.5 4.6,4.6 0.1,0 0.2,0 0.3,0 2.8,0 5,-2.2 5,-5 0,-0.1 0,-0.2 0,-0.3 0,0 0,0 0,0 l 1.9,-3.1 2.9,-4.7 c 0.4,-0.4 0.3,-1 -0.1,-1.4 z"
   class="st3"
   inkscape:connector-curvature="0"
   style="fill:#231f20" />

	</g>

	<g
   id="g1009">
		<path
   id="path1007"
   d="M 41.6,22.4 C 41.2,22 40.5,21.9 40.1,22.2 l -4.7,2.9 -3.1,1.9 c 0,0 0,0 0,0 -0.1,0 -0.2,0 -0.3,0 -2.8,0 -5,2.2 -5,5 0,0.1 0,0.2 0,0.3 0.2,2.5 2.1,4.5 4.6,4.6 0.1,0 0.2,0 0.3,0 2.8,0 5,-2.2 5,-5 0,-0.1 0,-0.2 0,-0.3 0,0 0,0 0,0 l 1.9,-3.1 2.9,-4.7 c 0.4,-0.4 0.3,-1 -0.1,-1.4 z"
   class="st4"
   inkscape:connector-curvature="0"
   style="fill:#c75c5c" />

	</g>

	<g
   id="g1013">
		<circle
   id="circle1011"
   r="5"
   cy="32"
   cx="32"
   class="st5"
   style="fill:#ffffff" />

	</g>

	<g
   id="g1017">
		<path
   id="path1015"
   d="m 40,49 c 0,1.7 -1.3,3 -3,3 H 27 c -1.7,0 -3,-1.3 -3,-3 v -2 c 0,-1.7 1.3,-3 3,-3 h 10 c 1.7,0 3,1.3 3,3 z"
   class="st6"
   inkscape:connector-curvature="0"
   style="fill:#f5cf87" />

	</g>

</g>
      <g
         id="Layer_2">
</g>
    </g>
  </g>
  <style
     id="style941"
     type="text/css">
	.st0{fill:#4F5D73;}
	.st1{fill:#E0E0D1;}
	.st2{opacity:0.2;}
	.st3{fill:#231F20;}
	.st4{fill:#C75C5C;}
	.st5{fill:#FFFFFF;}
	.st6{fill:#F5CF87;}
</style>
</svg>
